<mxfile host="app.diagrams.net" agent="Mozilla/5.0 (Windows NT 10.0; Win64; x64) AppleWebKit/537.36 (KHTML, like Gecko) Chrome/130.0.0.0 Safari/537.36 Edg/130.0.0.0" version="24.8.6">
  <diagram name="Seite-1" id="-11hzhJYmPiTypU0ZmR5">
    <mxGraphModel dx="1426" dy="791" grid="1" gridSize="10" guides="1" tooltips="1" connect="1" arrows="1" fold="1" page="1" pageScale="1" pageWidth="827" pageHeight="1169" math="0" shadow="0">
      <root>
        <mxCell id="0" />
        <mxCell id="1" parent="0" />
        <mxCell id="_7TmHSX3c9eSnrrwsaeN-2" value="Beginnen&lt;div&gt;&lt;br&gt;&lt;/div&gt;&lt;div&gt;&lt;br&gt;&lt;/div&gt;" style="ellipse;whiteSpace=wrap;html=1;" vertex="1" parent="1">
          <mxGeometry x="410" width="120" height="80" as="geometry" />
        </mxCell>
        <mxCell id="_7TmHSX3c9eSnrrwsaeN-3" value="Konto-Nummer eingeben&lt;div&gt;PIN eingeben&lt;/div&gt;&lt;div&gt;Kontostand abfragen, Geld abheben, Geld einzahlen&lt;/div&gt;" style="shape=parallelogram;perimeter=parallelogramPerimeter;whiteSpace=wrap;html=1;fixedSize=1;" vertex="1" parent="1">
          <mxGeometry x="260" y="90" width="430" height="100" as="geometry" />
        </mxCell>
        <mxCell id="_7TmHSX3c9eSnrrwsaeN-4" value="Kontostand 체berpr체fen&lt;div&gt;Verf체gbaren Betrag berechnen&lt;/div&gt;&lt;div&gt;Geld abheben&lt;/div&gt;&lt;div&gt;Geld einzahlen&lt;/div&gt;&lt;div&gt;Fehlermeldung ausgeben&lt;/div&gt;" style="rounded=0;whiteSpace=wrap;html=1;" vertex="1" parent="1">
          <mxGeometry x="195" y="200" width="560" height="110" as="geometry" />
        </mxCell>
        <mxCell id="_7TmHSX3c9eSnrrwsaeN-5" value="Kontostand anzeigen&lt;div&gt;Erfolgreiche Transaktion best채tigen&lt;/div&gt;&lt;div&gt;Fehlermeldung anzeigen&lt;/div&gt;" style="shape=parallelogram;perimeter=parallelogramPerimeter;whiteSpace=wrap;html=1;fixedSize=1;" vertex="1" parent="1">
          <mxGeometry x="230" y="320" width="450" height="100" as="geometry" />
        </mxCell>
        <mxCell id="_7TmHSX3c9eSnrrwsaeN-6" value="beendet" style="ellipse;whiteSpace=wrap;html=1;" vertex="1" parent="1">
          <mxGeometry x="340" y="450" width="240" height="130" as="geometry" />
        </mxCell>
      </root>
    </mxGraphModel>
  </diagram>
</mxfile>
